<svg width="88" height="24" viewBox="0 0 88 24" fill="none" xmlns="http://www.w3.org/2000/svg">
<path d="M0 23V0H15.6093L18.882 2.20143V12.4529L15.6093 14.6543H5.45046V23H0ZM5.45046 4.20062V10.2777H13.4315V4.20062H5.45046Z" fill="#4889EB"/>
<path d="M21.66 20.3927L28.5083 11.2371L21.6851 2.11936V0H26.2503L31.584 7.13L36.9566 0H41.4928V2.14819L34.6596 11.2371L41.4824 20.3184V23H37.3459L31.584 15.3443L25.861 23H21.66V20.3927Z" fill="white"/>
<path d="M64.2376 9.43L62.0931 11.2371L64.2376 12.7814V20.7986L61.1863 23H44.9664V0H61.1863L64.2376 2.20143V9.43ZM50.4168 13.5607V19.0571H58.7872V13.5607H50.4168ZM50.4168 3.94286V8.88481H58.7872V3.94286H50.4168Z" fill="white"/>
<path d="M80.3638 4.48422V23H74.9133V4.48422H67.5552V0H87.7219V4.48422H80.3638Z" fill="white"/>
</svg>
